<?xml version="1.0" encoding="UTF-8"?>
<svg width="300" height="300" xmlns="http://www.w3.org/2000/svg" style="background: white;">
  <defs>
    <style>
      .qr-title { font-family: Arial, sans-serif; font-size: 12px; fill: #333; }
      .qr-module { fill: #000; }
      .qr-background { fill: #fff; }
    </style>
  </defs>

  <!-- Background -->
  <rect width="300" height="300" class="qr-background"/>

  <!-- Title -->
  <text x="150" y="20" text-anchor="middle" class="qr-title">QR Code Generated by Suntyn AI</text>

  <!-- QR Code Area -->
  <rect x="50" y="40" width="200" height="200" fill="none" stroke="#333" stroke-width="2"/>

  <!-- QR Pattern (Simplified) -->
    <rect x="70" y="70" width="12" height="12" class="qr-module"/>
  <rect x="70" y="115" width="12" height="12" class="qr-module"/>
  <rect x="70" y="160" width="12" height="12" class="qr-module"/>
  <rect x="70" y="205" width="12" height="12" class="qr-module"/>
  <rect x="85" y="100" width="12" height="12" class="qr-module"/>
  <rect x="85" y="145" width="12" height="12" class="qr-module"/>
  <rect x="85" y="190" width="12" height="12" class="qr-module"/>
  <rect x="100" y="85" width="12" height="12" class="qr-module"/>
  <rect x="100" y="130" width="12" height="12" class="qr-module"/>
  <rect x="100" y="175" width="12" height="12" class="qr-module"/>
  <rect x="115" y="70" width="12" height="12" class="qr-module"/>
  <rect x="115" y="115" width="12" height="12" class="qr-module"/>
  <rect x="115" y="160" width="12" height="12" class="qr-module"/>
  <rect x="115" y="205" width="12" height="12" class="qr-module"/>
  <rect x="130" y="100" width="12" height="12" class="qr-module"/>
  <rect x="130" y="145" width="12" height="12" class="qr-module"/>
  <rect x="130" y="190" width="12" height="12" class="qr-module"/>
  <rect x="145" y="85" width="12" height="12" class="qr-module"/>
  <rect x="145" y="130" width="12" height="12" class="qr-module"/>
  <rect x="145" y="175" width="12" height="12" class="qr-module"/>
  <rect x="160" y="70" width="12" height="12" class="qr-module"/>
  <rect x="160" y="115" width="12" height="12" class="qr-module"/>
  <rect x="160" y="160" width="12" height="12" class="qr-module"/>
  <rect x="160" y="205" width="12" height="12" class="qr-module"/>
  <rect x="175" y="100" width="12" height="12" class="qr-module"/>
  <rect x="175" y="145" width="12" height="12" class="qr-module"/>
  <rect x="175" y="190" width="12" height="12" class="qr-module"/>
  <rect x="190" y="85" width="12" height="12" class="qr-module"/>
  <rect x="190" y="130" width="12" height="12" class="qr-module"/>
  <rect x="190" y="175" width="12" height="12" class="qr-module"/>
  <rect x="205" y="70" width="12" height="12" class="qr-module"/>
  <rect x="205" y="115" width="12" height="12" class="qr-module"/>
  <rect x="205" y="160" width="12" height="12" class="qr-module"/>
  <rect x="205" y="205" width="12" height="12" class="qr-module"/>


  <!-- Corner Squares -->
  <rect x="60" y="50" width="30" height="30" class="qr-module"/>
  <rect x="210" y="50" width="30" height="30" class="qr-module"/>
  <rect x="60" y="200" width="30" height="30" class="qr-module"/>

  <!-- Center Square -->
  <rect x="135" y="125" width="30" height="30" class="qr-module"/>

  <!-- Data -->
  <text x="150" y="270" text-anchor="middle" class="qr-title">Data: Hello World</text>
  <text x="150" y="290" text-anchor="middle" class="qr-title">Generated: 2025-07-28 14:23:28</text>
</svg>