<?xml version="1.0" encoding="UTF-8"?>
<svg width="200" height="200" viewBox="0 0 200 200" xmlns="http://www.w3.org/2000/svg">
  <rect width="200" height="200" fill="white"/>
  <g fill="black">
    <!-- QR Code pattern -->
    <rect x="20" y="20" width="20" height="20"/>
    <rect x="60" y="20" width="20" height="20"/>
    <rect x="100" y="20" width="20" height="20"/>
    <rect x="140" y="20" width="20" height="20"/>
    <rect x="20" y="60" width="20" height="20"/>
    <rect x="140" y="60" width="20" height="20"/>
    <rect x="20" y="100" width="20" height="20"/>
    <rect x="60" y="100" width="20" height="20"/>
    <rect x="100" y="100" width="20" height="20"/>
    <rect x="140" y="100" width="20" height="20"/>
    <rect x="20" y="140" width="20" height="20"/>
    <rect x="60" y="140" width="20" height="20"/>
    <rect x="100" y="140" width="20" height="20"/>
    <rect x="140" y="140" width="20" height="20"/>
  </g>
  <text x="100" y="190" text-anchor="middle" font-family="Arial" font-size="12" fill="black">Suntyn AI QR Code</text>
</svg>