
<svg width="32" height="32" viewBox="0 0 32 32" fill="none" xmlns="http://www.w3.org/2000/svg">
  <defs>
    <linearGradient id="tealGradient" x1="0" y1="0" x2="32" y2="32" gradientUnits="userSpaceOnUse">
      <stop stop-color="#14B8A6"/>
      <stop offset="1" stop-color="#0891B2"/>
    </linearGradient>
    <linearGradient id="orangeGradient" x1="0" y1="0" x2="32" y2="32" gradientUnits="userSpaceOnUse">
      <stop stop-color="#F97316"/>
      <stop offset="1" stop-color="#EA580C"/>
    </linearGradient>
  </defs>
  
  <!-- Background -->
  <rect width="32" height="32" rx="6" fill="#1a1a1a"/>
  
  <!-- Left curved teal section -->
  <path d="M0 6 C0 2.686 2.686 0 6 0 L16 0 C20 0 24 4 24 8 L24 24 C24 28 20 32 16 32 L6 32 C2.686 32 0 29.314 0 26 Z" fill="url(#tealGradient)"/>
  
  <!-- Right curved orange section -->
  <path d="M16 0 C20 0 24 4 24 8 L24 24 C24 28 20 32 16 32 L26 32 C29.314 32 32 29.314 32 26 L32 6 C32 2.686 29.314 0 26 0 Z" fill="url(#orangeGradient)"/>
  
  <!-- Central intersection glow -->
  <ellipse cx="16" cy="16" rx="8" ry="12" fill="rgba(255,255,255,0.1)"/>
  
  <!-- Neural network dots -->
  <circle cx="12" cy="8" r="1" fill="rgba(255,255,255,0.8)"/>
  <circle cx="20" cy="12" r="1" fill="rgba(255,255,255,0.8)"/>
  <circle cx="16" cy="20" r="1" fill="rgba(255,255,255,0.8)"/>
  <circle cx="8" cy="24" r="1" fill="rgba(255,255,255,0.8)"/>
</svg>
