
<svg xmlns="http://www.w3.org/2000/svg" viewBox="0 0 64 64" width="64" height="64">
  <defs>
    <!-- Complex gradient for 3D effect -->
    <radialGradient id="sunCore" cx="50%" cy="35%" r="60%">
      <stop offset="0%" style="stop-color:#fbbf24;stop-opacity:1" />
      <stop offset="40%" style="stop-color:#f59e0b;stop-opacity:1" />
      <stop offset="80%" style="stop-color:#d97706;stop-opacity:1" />
      <stop offset="100%" style="stop-color:#92400e;stop-opacity:1" />
    </radialGradient>
    
    <!-- Rays gradient -->
    <linearGradient id="rayGradient" x1="0%" y1="0%" x2="100%" y2="100%">
      <stop offset="0%" style="stop-color:#fef3c7;stop-opacity:0.9" />
      <stop offset="50%" style="stop-color:#fbbf24;stop-opacity:0.8" />
      <stop offset="100%" style="stop-color:#d97706;stop-opacity:0.6" />
    </linearGradient>
    
    <!-- AI Neural gradient -->
    <linearGradient id="neuralGradient" x1="0%" y1="0%" x2="100%" y2="100%">
      <stop offset="0%" style="stop-color:#fbbf24;stop-opacity:1" />
      <stop offset="50%" style="stop-color:#f59e0b;stop-opacity:1" />
      <stop offset="100%" style="stop-color:#d97706;stop-opacity:1" />
    </linearGradient>
    
    <!-- 3D shadow filter -->
    <filter id="shadow3D" x="-50%" y="-50%" width="200%" height="200%">
      <feDropShadow dx="2" dy="4" stdDeviation="3" flood-color="#92400e" flood-opacity="0.4"/>
      <feDropShadow dx="1" dy="2" stdDeviation="1" flood-color="#fbbf24" flood-opacity="0.3"/>
    </filter>
    
    <!-- Glow effect -->
    <filter id="glow" x="-50%" y="-50%" width="200%" height="200%">
      <feGaussianBlur stdDeviation="2" result="coloredBlur"/>
      <feMerge>
        <feMergeNode in="coloredBlur"/>
        <feMergeNode in="SourceGraphic"/>
      </feMerge>
    </filter>
  </defs>
  
  <!-- Outer rotating ring with 3D effect -->
  <circle cx="32" cy="32" r="28" fill="none" stroke="url(#rayGradient)" stroke-width="1.5" opacity="0.4" filter="url(#shadow3D)"/>
  
  <!-- 9 Main Rays (not dots) -->
  <!-- Ray 1 - Top -->
  <path d="M32 4 L34 18 L30 18 Z" fill="url(#rayGradient)" filter="url(#glow)" transform="rotate(0 32 32)"/>
  
  <!-- Ray 2 - Top Right -->
  <path d="M32 4 L34 18 L30 18 Z" fill="url(#rayGradient)" filter="url(#glow)" transform="rotate(40 32 32)"/>
  
  <!-- Ray 3 - Right -->
  <path d="M32 4 L34 18 L30 18 Z" fill="url(#rayGradient)" filter="url(#glow)" transform="rotate(80 32 32)"/>
  
  <!-- Ray 4 - Bottom Right -->
  <path d="M32 4 L34 18 L30 18 Z" fill="url(#rayGradient)" filter="url(#glow)" transform="rotate(120 32 32)"/>
  
  <!-- Ray 5 - Bottom -->
  <path d="M32 4 L34 18 L30 18 Z" fill="url(#rayGradient)" filter="url(#glow)" transform="rotate(160 32 32)"/>
  
  <!-- Ray 6 - Bottom Left -->
  <path d="M32 4 L34 18 L30 18 Z" fill="url(#rayGradient)" filter="url(#glow)" transform="rotate(200 32 32)"/>
  
  <!-- Ray 7 - Left -->
  <path d="M32 4 L34 18 L30 18 Z" fill="url(#rayGradient)" filter="url(#glow)" transform="rotate(240 32 32)"/>
  
  <!-- Ray 8 - Top Left -->
  <path d="M32 4 L34 18 L30 18 Z" fill="url(#rayGradient)" filter="url(#glow)" transform="rotate(280 32 32)"/>
  
  <!-- Ray 9 - North West -->
  <path d="M32 4 L34 18 L30 18 Z" fill="url(#rayGradient)" filter="url(#glow)" transform="rotate(320 32 32)"/>
  
  <!-- AI Neural Network Connections -->
  <g opacity="0.6">
    <!-- Connection lines between neural nodes -->
    <path d="M32 20 Q40 26 44 32" stroke="url(#neuralGradient)" stroke-width="1" fill="none" opacity="0.7"/>
    <path d="M44 32 Q40 38 32 44" stroke="url(#neuralGradient)" stroke-width="1" fill="none" opacity="0.7"/>
    <path d="M32 44 Q24 38 20 32" stroke="url(#neuralGradient)" stroke-width="1" fill="none" opacity="0.7"/>
    <path d="M20 32 Q24 26 32 20" stroke="url(#neuralGradient)" stroke-width="1" fill="none" opacity="0.7"/>
  </g>
  
  <!-- Neural Network Nodes -->
  <circle cx="32" cy="20" r="2.5" fill="url(#neuralGradient)" filter="url(#glow)"/>
  <circle cx="44" cy="32" r="2.5" fill="url(#neuralGradient)" filter="url(#glow)"/>
  <circle cx="32" cy="44" r="2.5" fill="url(#neuralGradient)" filter="url(#glow)"/>
  <circle cx="20" cy="32" r="2.5" fill="url(#neuralGradient)" filter="url(#glow)"/>
  
  <!-- Diagonal Neural Nodes -->
  <circle cx="41" cy="23" r="1.8" fill="url(#neuralGradient)" opacity="0.9" filter="url(#glow)"/>
  <circle cx="23" cy="23" r="1.8" fill="url(#neuralGradient)" opacity="0.9" filter="url(#glow)"/>
  <circle cx="41" cy="41" r="1.8" fill="url(#neuralGradient)" opacity="0.9" filter="url(#glow)"/>
  <circle cx="23" cy="41" r="1.8" fill="url(#neuralGradient)" opacity="0.9" filter="url(#glow)"/>
  
  <!-- Central 3D Sun Core -->
  <circle cx="32" cy="32" r="10" fill="url(#sunCore)" filter="url(#shadow3D)"/>
  
  <!-- Inner 3D layers for depth -->
  <circle cx="32" cy="32" r="7" fill="#fbbf24" opacity="0.8" filter="url(#glow)"/>
  <circle cx="32" cy="32" r="4" fill="#fef3c7" opacity="0.9"/>
  <circle cx="32" cy="32" r="2" fill="url(#neuralGradient)"/>
  
  <!-- AI Spark particles -->
  <g opacity="0.8">
    <circle cx="26" cy="26" r="0.8" fill="#fbbf24" filter="url(#glow)">
      <animate attributeName="opacity" values="0.3;1;0.3" dur="2s" repeatCount="indefinite"/>
    </circle>
    <circle cx="38" cy="26" r="0.8" fill="#f59e0b" filter="url(#glow)">
      <animate attributeName="opacity" values="1;0.3;1" dur="2.5s" repeatCount="indefinite"/>
    </circle>
    <circle cx="38" cy="38" r="0.8" fill="#d97706" filter="url(#glow)">
      <animate attributeName="opacity" values="0.3;1;0.3" dur="3s" repeatCount="indefinite"/>
    </circle>
    <circle cx="26" cy="38" r="0.8" fill="#fbbf24" filter="url(#glow)">
      <animate attributeName="opacity" values="1;0.3;1" dur="1.8s" repeatCount="indefinite"/>
    </circle>
  </g>
</svg>
