<svg width="32" height="32" viewBox="0 0 32 32" fill="none" xmlns="http://www.w3.org/2000/svg">
  <!-- Teal curved shape - top left -->
  <path d="M0 8C0 3.58172 3.58172 0 8 0H16V24C16 26.2091 14.2091 28 12 28H8C3.58172 28 0 24.4183 0 20V8Z" fill="url(#gradient1)"/>
  <!-- Beige curved shape - top right -->
  <path d="M16 0H24C28.4183 0 32 3.58172 32 8V16H20C17.7909 16 16 14.2091 16 12V0Z" fill="url(#gradient2)"/>
  <!-- Bottom beige shape - bottom right -->
  <path d="M16 16H28C30.2091 16 32 17.7909 32 20V24C32 28.4183 28.4183 32 24 32H16V16Z" fill="url(#gradient3)"/>
  
  <defs>
    <linearGradient id="gradient1" x1="0" y1="0" x2="16" y2="28" gradientUnits="userSpaceOnUse">
      <stop stop-color="#14B8A6"/>
      <stop offset="1" stop-color="#0D9488"/>
    </linearGradient>
    <linearGradient id="gradient2" x1="16" y1="0" x2="32" y2="16" gradientUnits="userSpaceOnUse">
      <stop stop-color="#FDE047"/>
      <stop offset="1" stop-color="#F97316"/>
    </linearGradient>
    <linearGradient id="gradient3" x1="16" y1="16" x2="32" y2="32" gradientUnits="userSpaceOnUse">
      <stop stop-color="#F97316"/>
      <stop offset="1" stop-color="#FDE047"/>
    </linearGradient>
  </defs>
</svg>